<?xml version="1.0" encoding="utf-8"?>
<!-- Generator: Adobe Illustrator 25.3.0, SVG Export Plug-In . SVG Version: 6.00 Build 0)  -->
<svg version="1.1" id="Capa_1" xmlns="http://www.w3.org/2000/svg" xmlns:xlink="http://www.w3.org/1999/xlink" x="0px" y="0px"
	 viewBox="0 0 350 51" style="enable-background:new 0 0 350 51;" xml:space="preserve">
<style type="text/css">
	.st0{fill:#FFFFFF;}
</style>
<path class="st0" d="M0.5,0.7h7.7v42h12.7v7H0.5V0.7z"/>
<path class="st0" d="M23.6,12.4c0-7.8,4.1-12.3,11.7-12.3S47,4.6,47,12.4v25.5c0,7.8-4.1,12.3-11.7,12.3s-11.7-4.5-11.7-12.3V12.4z
	 M31.3,38.4c0,3.5,1.5,4.8,4,4.8s4-1.3,4-4.8V11.9c0-3.5-1.5-4.8-4-4.8s-4,1.3-4,4.8V38.4z"/>
<path class="st0" d="M63.5,40.6l5.9-40h7.1l-7.6,49H57.5l-7.6-49h7.8L63.5,40.6z"/>
<path class="st0" d="M87.8,21.3h10.6v7H87.8v14.3h13.3v7h-21v-49h21v7H87.8V21.3z"/>
<path class="st0" d="M116,12.4c0-7.8,4.2-12.3,11.7-12.3s11.7,4.5,11.7,12.3v25.5c0,7.8-4.1,12.3-11.7,12.3S116,45.8,116,37.9V12.4z
	 M123.7,38.4c0,3.5,1.5,4.8,4,4.8c2.5,0,4-1.3,4-4.8V11.9c0-3.5-1.5-4.8-4-4.8s-4,1.3-4,4.8V38.4z"/>
<path class="st0" d="M152.1,22.4h9.9v7h-9.9v20.2h-7.7v-49h20.4v7h-12.6V22.4z"/>
<path class="st0" d="M179.3,0.7h7.7v42h12.7v7h-20.3V0.7z"/>
<path class="st0" d="M210.8,21.3h10.6v7h-10.6v14.3h13.3v7h-21v-49h21v7h-13.3V21.3z"/>
<path class="st0" d="M239.2,0.1c7.5,0,11.3,4.5,11.3,12.3V14h-7.3v-2c0-3.5-1.4-4.8-3.9-4.8s-3.9,1.3-3.9,4.8
	c0,10.1,15.1,12,15.1,26c0,7.8-3.9,12.3-11.5,12.3s-11.5-4.5-11.5-12.3v-3h7.3v3.5c0,3.5,1.5,4.8,4,4.8s4-1.3,4-4.8
	c0-10.1-15.1-12-15.1-26C227.8,4.6,231.7,0.1,239.2,0.1z"/>
<path class="st0" d="M278,11.9v1.8c0,5-1.5,8.3-5,9.9c4.1,1.6,5.7,5.3,5.7,10.5v4c0,7.6-4,11.6-11.7,11.6h-12v-49h11.6
	C274.6,0.7,278,4.4,278,11.9z M262.7,7.7v13h3c2.9,0,4.6-1.3,4.6-5.2v-2.8c0-3.5-1.2-5-3.9-5L262.7,7.7z M262.7,27.7v15h4.4
	c2.6,0,4-1.2,4-4.8v-4.3c0-4.5-1.5-6-5-6L262.7,27.7z"/>
<path class="st0" d="M283.4,0.7h7.7v49h-7.7V0.7z"/>
<path class="st0" d="M321.6,49.7h-7.8l-1.3-8.9h-9.5l-1.3,8.9h-7.1l7.8-49h11.3L321.6,49.7z M304.1,34.1h7.4l-3.7-24.8L304.1,34.1z"
	/>
<path class="st0" d="M332.1,14.2v35.5h-6.9v-49h9.7l7.9,29.3V0.7h6.9v49h-7.9L332.1,14.2z"/>
</svg>
